<svg t="1736924152299" class="icon" viewBox="0 0 1024 1024" version="1.1"
    xmlns="http://www.w3.org/2000/svg" p-id="19365" width="48" height="48">
    <path
        d="M0 0m157.538462 0l708.923076 0q157.538462 0 157.538462 157.538462l0 708.923076q0 157.538462-157.538462 157.538462l-708.923076 0q-157.538462 0-157.538462-157.538462l0-708.923076q0-157.538462 157.538462-157.538462Z"
        fill="#F4F7FF" p-id="19366"></path>
    <path
        d="M311.492923 236.307692H712.467692C754.018462 236.307692 787.692308 270.572308 787.692308 312.832v306.136615a77.193846 77.193846 0 0 1-21.897846 54.311385 74.515692 74.515692 0 0 1-53.287385 22.528H311.532308c-20.007385 0-39.148308-8.113231-53.287385-22.528A77.193846 77.193846 0 0 1 236.307692 618.968615V312.832C236.307692 270.572308 269.981538 236.307692 311.492923 236.307692z m103.030154 341.58277l30.404923-31.035077L372.381538 473.009231 445.046154 398.966154l-30.444308-30.956308-103.030154 104.881231 102.951385 104.999385z m206.375385 0L723.889231 473.009231l-103.030154-104.881231-30.444308 30.956308 72.743385 73.924923-72.507077 73.846154 30.208 31.035077z m-116.578462 4.292923c26.860308-84.283077 41.472-131.465846 64.157538-205.233231L527.36 363.874462a23264.137846 23264.137846 0 0 1-63.803077 204.760615l40.763077 13.548308zM741.730462 771.308308c0 12.642462-8.585846 22.921846-19.180308 22.921846H295.857231c-7.089231 0.393846-13.784615-3.859692-17.447385-11.145846a26.860308 26.860308 0 0 1 0-23.63077c3.662769-7.246769 10.358154-11.539692 17.447385-11.106461h426.692923c10.633846 0 19.180308 10.279385 19.180308 22.961231z"
        fill="#71A0FE" p-id="19367"></path>
</svg>